<svg xmlns="http://www.w3.org/2000/svg" width="643" height="603" viewBox="0 0 643 603">
  <defs>
    <style>
      .cls-1 {
        fill: #fff;
        fill-rule: evenodd;
      }
    </style>
  </defs>
  <path id="Color_Fill_1" data-name="Color Fill 1" class="cls-1" d="M241,9c66.651-7.986,96.092,42.958,149,51C456.765,70.148,517.916-.123,576.331,76.717,608.622,119.194,570.953,184.373,572,227c1.055,42.934,40.608,56.255,54,94,19.373,54.6-46.388,79.314-71,144-4.9,12.19-9.149.994-25,91-8.679,16.983-11.651,23.082-33,29-96.29,31.314-139.8-35.523-177-37-53.829-2.136-136.385,65.156-178,40-48.648-29.407-34.719-111.1-50-180-7.561-34.089-28.364-30.5-41-45-20.477-23.5-30.389-49.907-37-85-6.659-35.349,3.664-49.972,13-64,23.705-35.617,65.744-45.213,97-73C171.143,99.089,175.459,29.911,241,9ZM9,782c50.126-2.664,91.607,15.724,54,57C8.66,852.525-31.169,815.416,9,782ZM3,842c100.37-3.114,47.734,163.72,29,170,16.955,12.65,13.889,116.91-29,98-20.617-9.09-15.741-85.89,0-98C-9.487,992.813-17.858,866.215,3,842Z"/>
</svg>
